<?xml version="1.0" encoding="utf-8"?>
<!-- Generator: Adobe Illustrator 24.2.1, SVG Export Plug-In . SVG Version: 6.00 Build 0)  -->
<svg version="1.1" id="Capa_1" xmlns="http://www.w3.org/2000/svg" xmlns:xlink="http://www.w3.org/1999/xlink" x="0px" y="0px"
	 viewBox="0 0 312.8 312.8" style="enable-background:new 0 0 312.8 312.8;" xml:space="preserve">
<g>
	<g>
		<path d="M0.4,190.6c8.4,35.2,28.4,66,56,87.6c27.2,21.2,61.2,34,98,34c44,0,83.2-17.6,112-46.4s46.4-68.4,46.4-112
			c0-36-12-69.2-32.4-96C259.2,30.6,229.6,10.2,195.6,1c-3.2-0.8-6.4,0-9.2,2c-4.4,3.6-5.2,10-1.6,14.4c8.4,10,14.8,21.6,19.2,34.4
			c4,12,6.4,25.2,6.4,38.8c0,32.4-13.2,62-34.4,83.2s-50.8,34.4-83.2,34.4c-14.4,0-28-2.4-40.4-7.2c-13.2-4.8-25.2-12-35.6-20.8
			c-2.8-2-6-2.8-9.2-2C2,179.4-1.2,185,0.4,190.6z"/>
	</g>
</g>
</svg>
